<svg width="200" xmlns="http://www.w3.org/2000/svg" height="35" viewBox="0 0 200 35" xmlns:xlink="http://www.w3.org/1999/xlink" enable-background="new 0 0 200 35">
<defs>
<radialGradient cx="448.591" cy="-256.785" gradientTransform="matrix(1.0317 0 0 -.6297 -309.9697 -155.2627)" id="SVGID_1_" r="50.206" gradientUnits="userSpaceOnUse">
<stop offset="0" stop-color="#9dd5f6"/>
<stop offset=".071" stop-color="#98d3f5"/>
<stop offset=".158" stop-color="#89cef3"/>
<stop offset=".252" stop-color="#70c6ef"/>
<stop offset=".351" stop-color="#4ebbea"/>
<stop offset=".455" stop-color="#23ade3"/>
<stop offset=".5" stop-color="#0da6e0"/>
<stop offset="1" stop-color="#2e77bc"/>
</radialGradient>
</defs>
<path fill="url(#SVGID_1_)" d="m198.625,.498h-55.511v34.004h55.511"/>
<g fill="#fff">
<path d="m148.159,11.754l-1.065-2.6-1.063,2.6m25.636-1.035c-.215,.13-.468,.133-.771,.133h-1.894v-1.448h1.918c.272,0 .557,.013 .74,.118 .202,.095 .326,.297 .326,.576 0,.286-.118,.516-.319,.621zm13.509,1.035l-1.078-2.6-1.072,2.6h2.15zm-25.185,2.814h-1.598l-.005-5.107-2.262,5.107h-1.368l-2.267-5.112v5.112h-3.172l-.597-1.455h-3.247l-.606,1.455h-1.691l2.792-6.521h2.315l2.651,6.175v-6.175h2.544l2.039,4.424 1.875-4.424h2.596v6.521h.001zm6.37,0h-5.208v-6.521h5.208v1.357h-3.648v1.176h3.561v1.337h-3.561v1.302h3.648v1.349zm7.343-4.765c0,1.04-.694,1.577-1.099,1.738 .343,.13 .633,.36 .772,.549 .221,.325 .258,.614 .258,1.196v1.281h-1.572l-.006-.822c0-.392 .037-.957-.247-1.271-.229-.229-.574-.278-1.135-.278h-1.674v2.372h-1.56v-6.521h3.586c.797,0 1.384,.021 1.888,.312 .494,.291 .789,.717 .789,1.444zm2.494,4.765h-1.591v-6.521h1.591v6.521zm18.455,0h-2.208l-2.956-4.895v4.895h-3.175l-.606-1.455h-3.239l-.589,1.455h-1.823c-.758,0-1.718-.167-2.26-.721-.55-.554-.832-1.303-.832-2.489 0-.968 .169-1.853 .84-2.551 .503-.521 1.292-.76 2.367-.76h1.508v1.397h-1.477c-.568,0-.89,.084-1.199,.387-.266,.274-.449,.794-.449,1.478 0,.699 .138,1.203 .429,1.531 .241,.258 .678,.337 1.088,.337h.699l2.197-5.129h2.336l2.639,6.168v-6.169h2.375l2.74,4.542v-4.542h1.596v6.521h-.001zm-51.492,1.282h2.663l.6-1.448h1.345l.6,1.448h5.241v-1.107l.468,1.111h2.719l.47-1.128v1.124h13.024l-.008-2.377h.254c.176,.005 .228,.021 .228,.313v2.064h6.736v-.553c.544,.291 1.389,.553 2.501,.553h2.833l.607-1.448h1.345l.594,1.448h5.459v-1.376l.828,1.376h4.376v-9.097h-4.331v1.074l-.605-1.074h-4.445v1.074l-.557-1.074h-6.003c-1.005,0-1.887,.141-2.602,.531v-.531h-4.142v.531c-.454-.402-1.074-.531-1.76-.531h-15.137l-1.014,2.349-1.045-2.349h-4.768v1.074l-.523-1.074h-4.063l-1.89,4.326v4.771h.002z"/>
<path d="m198.625,20.661h-2.84c-.285,0-.473,.012-.632,.117-.166,.105-.229,.263-.229,.468 0,.249 .14,.416 .341,.488 .166,.058 .342,.073 .601,.073l.846,.023c.853,.021 1.423,.166 1.769,.523 .064,.052 .102,.106 .145,.163m-.001,2.446c-.377,.555-1.117,.834-2.115,.834h-3.01v-1.399h2.998c.297,0 .506-.039 .63-.162 .109-.1 .186-.246 .186-.423 0-.191-.076-.342-.191-.434-.112-.099-.278-.144-.549-.144-1.464-.051-3.29,.045-3.29-2.02 0-.946 .601-1.943 2.237-1.943h3.104v-1.297h-2.886c-.869,0-1.502,.209-1.951,.533v-.533h-4.266c-.684,0-1.483,.169-1.862,.533v-.533h-7.622v.533c-.605-.437-1.629-.533-2.104-.533h-5.026v.533c-.479-.465-1.545-.533-2.196-.533h-5.627l-1.285,1.393-1.207-1.393h-8.403v9.103h8.247l1.323-1.415 1.251,1.415 5.084,.005v-2.141h.498c.675,.01 1.472-.018 2.172-.321v2.457h4.191v-2.373h.202c.259,0 .285,.011 .285,.269v2.104h12.734c.81,0 1.654-.206 2.123-.583v.583h4.038c.842,0 1.662-.118 2.286-.419v-1.696h.001zm-6.219-2.608c.304,.314 .468,.711 .468,1.384 0,1.404-.878,2.058-2.45,2.058h-3.036v-1.399h3.024c.295,0 .505-.039 .637-.162 .107-.1 .185-.246 .185-.423 0-.191-.083-.342-.191-.434-.119-.099-.283-.144-.556-.144-1.457-.051-3.284,.045-3.284-2.02 0-.946 .596-1.943 2.231-1.943h3.125v1.39h-2.859c-.285,0-.47,.012-.627,.117-.171,.106-.233,.263-.233,.471 0,.246 .146,.413 .342,.485 .164,.058 .342,.073 .606,.073l.839,.023c.846,.023 1.427,.167 1.779,.524zm-14.067-.401c-.208,.123-.466,.132-.77,.132h-1.894v-1.464h1.919c.278,0 .556,.006 .744,.118 .202,.107 .322,.308 .322,.587s-.119,.505-.321,.627zm.943,.811c.346,.13 .628,.359 .762,.549 .222,.318 .254,.614 .259,1.191v1.292h-1.564v-.816c0-.393 .037-.974-.254-1.278-.226-.232-.574-.289-1.143-.289h-1.666v2.383h-1.565v-6.524h3.598c.791,0 1.364,.034 1.877,.308 .492,.299 .801,.706 .801,1.45-.001,1.04-.695,1.573-1.105,1.734zm1.97-3.493h5.203v1.35h-3.652v1.187h3.562v1.331h-3.562v1.297l3.652,.007v1.354h-5.203v-6.526zm-10.52,3.013h-2.016v-1.663h2.033c.564,0 .954,.229 .954,.802 .001,.562-.372,.861-.971,.861zm-3.566,2.919l-2.396-2.657 2.396-2.574v5.231zm-6.183-.767h-3.833v-1.297h3.422v-1.331h-3.422v-1.187h3.907l1.706,1.9-1.78,1.915zm12.395-3.013c0,1.811-1.354,2.185-2.717,2.185h-1.944v2.188h-3.028l-1.92-2.16-1.996,2.16h-6.175v-6.524h6.27l1.918,2.14 1.984-2.14h4.98c1.236-.001 2.628,.341 2.628,2.151z"/>
</g>
<path fill="#f90" d="m57.413,17.5c.003,9.388-7.605,17-16.993,17.002-9.388,.002-17-7.606-17.002-16.993 0-.004 0-.006 0-.009-.002-9.387 7.606-17 16.993-17.002 9.388-.002 17,7.606 17.002,16.994 0,.002 0,.005 0,.008z"/>
<path fill="#c00" d="m17.505,.502c-9.332,.06-16.888,7.651-16.888,16.998 0,9.383 7.615,16.998 16.998,16.998 4.404,0 8.417-1.679 11.438-4.43 0,0 0,0-.001,0h.003c.619-.562 1.196-1.172 1.726-1.819h-3.482c-.465-.562-.888-1.148-1.267-1.752h6.006c.365-.585 .696-1.19 .99-1.819h-7.988c-.272-.584-.508-1.181-.71-1.786h9.409c.567-1.694 .875-3.507 .875-5.391 0-1.25-.136-2.467-.392-3.64h-10.392c.129-.604 .291-1.2 .485-1.786h9.412c-.21-.624-.455-1.231-.732-1.82h-7.956c.287-.613 .612-1.21 .975-1.786h6.002c-.399-.636-.842-1.244-1.319-1.82h-3.347c.517-.608 1.087-1.183 1.705-1.717-3.021-2.751-7.036-4.43-11.44-4.43-.037,0-.073,0-.11,0z"/>
<path fill="#fcb340" d="m55.708,26.385c.092,0 .183,.024 .27,.072 .088,.047 .156,.115 .206,.203 .049,.087 .074,.18 .074,.275 0,.095-.024,.186-.073,.272-.048,.088-.116,.156-.204,.205-.086,.048-.178,.072-.273,.072-.095,0-.187-.024-.274-.072-.087-.049-.155-.116-.204-.205-.048-.087-.073-.178-.073-.272 0-.096 .024-.188 .074-.275 .049-.088 .117-.156 .205-.203 .09-.048 .18-.072 .272-.072m0,.091c-.077,0-.152,.021-.226,.061-.073,.04-.13,.097-.171,.171-.042,.073-.062,.149-.062,.229 0,.08 .021,.155 .061,.228 .041,.073 .098,.13 .17,.17 .073,.041 .149,.062 .228,.062s.155-.021 .228-.062c.072-.04 .129-.097 .169-.17 .04-.072 .06-.147 .06-.228 0-.079-.021-.156-.062-.229-.041-.074-.098-.131-.171-.171-.072-.041-.147-.061-.224-.061m-.241,.763v-.592h.204c.069,0 .119,.005 .15,.017 .031,.012 .056,.03 .075,.059 .018,.026 .028,.055 .028,.086 0,.042-.015,.08-.046,.112-.03,.032-.072,.05-.123,.054 .021,.009 .038,.021 .051,.032 .024,.022 .053,.062 .087,.117l.072,.115h-.117l-.052-.093c-.042-.074-.075-.12-.1-.139-.018-.013-.043-.02-.076-.02h-.056v.252h-.097m.095-.333h.116c.055,0 .092-.009 .113-.024 .021-.017 .03-.038 .03-.066 0-.018-.004-.032-.014-.047-.01-.014-.023-.023-.041-.03-.017-.007-.049-.011-.095-.011h-.108l-.001,.178"/>
<g fill="#006" transform="translate(-13.74405 15.9939)">
<path d="m36.999,6.382l.227-1.539c-.124,0-.306,.054-.466,.054-.63,0-.709-.336-.659-.582l.621-3.095h.958l.197-1.746h-.902l.184-1.059h-1.888c-.04,.04-1.068,5.951-1.068,6.671 0,1.066 .598,1.54 1.442,1.532 .659-.004 1.173-.187 1.354-.236z"/>
<path d="m37.573,3.449c0,2.558 1.688,3.165 3.126,3.165 1.328,0 2.023-.308 2.023-.308l.319-1.746c0,0-1.122,.456-2.033,.456-1.944,0-1.603-1.449-1.603-1.449l3.734,.012c0,0 .237-1.172 .237-1.65 0-1.192-.649-2.656-2.637-2.656-1.819,0-3.166,1.961-3.166,4.176zm3.173-2.556c1.021,0 .833,1.148 .833,1.241h-2.009c0-.119 .19-1.241 1.176-1.241z"/>
<path d="m52.206,6.382l.324-1.974c0,0-.889,.445-1.498,.445-1.284,0-1.799-.98-1.799-2.033 0-2.136 1.104-3.312 2.334-3.312 .922,0 1.662,.518 1.662,.518l.295-1.917c0,0-.874-.631-1.814-.635-2.829-.011-4.447,1.958-4.447,5.363 0,2.257 1.198,3.792 3.358,3.792 .612,0 1.585-.247 1.585-.247z"/>
<path d="m27.045-.699c-1.241,0-2.192,.399-2.192,.399l-.263,1.559c0,0 .785-.319 1.972-.319 .674,0 1.167,.076 1.167,.623 0,.333-.06,.456-.06,.456s-.532-.045-.778-.045c-1.767,0-3.209,.668-3.209,2.682 0,1.588 1.079,1.951 1.748,1.951 1.276,0 1.782-.806 1.812-.809l-.015,.67h1.594l.711-4.984c-.001-2.115-1.846-2.183-2.487-2.183zm.276,4.047c.035,.304-.079,1.742-1.169,1.742-.562,0-.708-.429-.708-.683 0-.496 .27-1.09 1.595-1.09 .31,.001 .23,.022 .282,.031z"/>
<path d="m31.225,6.571c.408,0 2.738,.104 2.738-2.301 0-2.249-2.157-1.805-2.157-2.708 0-.45 .352-.591 .995-.591 .255,0 1.237,.081 1.237,.081l.228-1.598c0,0-.635-.142-1.67-.142-1.338,0-2.697,.534-2.697,2.363 0,2.072 2.266,1.864 2.266,2.736 0,.583-.634,.631-1.122,.631-.844,0-1.604-.29-1.607-.275l-.242,1.581c.043,.014 .512,.223 2.031,.223z"/>
<path d="m67.135-2.149l-.327,2.438c0,0-.682-.941-1.748-.941-2.006,0-3.041,2-3.041,4.297 0,1.482 .738,2.936 2.244,2.936 1.084,0 1.685-.756 1.685-.756l-.08,.646h1.761l1.382-8.606-1.876-.014zm-.778,4.739c0,.955-.473,2.232-1.455,2.232-.651,0-.957-.547-.957-1.405 0-1.403 .63-2.329 1.426-2.329 .652,.001 .986,.448 .986,1.502z"/>
<path d="m17.246,6.478l1.102-6.498 .162,6.498h1.247l2.326-6.498-1.03,6.498h1.853l1.427-8.618-2.943-.022-1.751,5.276-.049-5.254h-2.697l-1.447,8.618h1.8z"/>
<path d="m45.13,6.489c.527-2.995 .714-5.361 2.25-4.871 .221-1.159 .747-2.167 .987-2.658 0,0-.076-.113-.551-.113-.811,0-1.893,1.645-1.893,1.645l.162-1.017h-1.685l-1.128,7.015h1.858v-.001z"/>
</g>
<g transform="translate(831.55605 15.9939)">
<path fill="#006" d="m-789.303-.699c-1.242,0-2.193,.399-2.193,.399l-.263,1.559c0,0 .786-.319 1.972-.319 .674,0 1.167,.076 1.167,.623 0,.333-.06,.456-.06,.456s-.532-.045-.778-.045c-1.767,0-3.209,.668-3.209,2.682 0,1.588 1.079,1.951 1.747,1.951 1.277,0 1.783-.806 1.812-.809l-.015,.67h1.594l.71-4.984c.001-2.115-1.843-2.183-2.484-2.183zm.275,4.047c.035,.304-.079,1.742-1.168,1.742-.562,0-.708-.429-.708-.683 0-.496 .269-1.09 1.595-1.09 .309,.001 .23,.022 .281,.031z"/>
</g>
<g transform="translate(-13.74405 15.9939)">
<path fill="#006" d="m60.316,6.489c.289-2.203 .825-5.298 2.25-4.871 .221-1.159 .008-1.157-.466-1.157-.812,0-.991,.03-.991,.03l.162-1.017h-1.685l-1.129,7.015h1.859z"/>
</g>
<g fill="#fff">
<path d="m23.727,21.827l.227-1.538c-.124,0-.306,.053-.467,.053-.63,0-.699-.335-.659-.582l.509-3.139h.958l.231-1.702h-.903l.184-1.059h-1.81c-.04,.04-1.068,5.951-1.068,6.672 0,1.065 .598,1.54 1.442,1.532 .66-.005 1.175-.188 1.356-.237z"/>
<path d="m24.301,18.895c0,2.558 1.688,3.165 3.126,3.165 1.328,0 1.912-.297 1.912-.297l.319-1.745c0,0-1.01,.444-1.922,.444-1.943,0-1.603-1.449-1.603-1.449h3.678c0,0 .237-1.172 .237-1.65 0-1.192-.593-2.645-2.581-2.645-1.82-.001-3.166,1.961-3.166,4.177zm3.173-2.557c1.021,0 .833,1.147 .833,1.24h-2.009c0-.118 .19-1.24 1.176-1.24z"/>
<path d="m38.935,21.826l.324-1.973c0,0-.888,.445-1.497,.445-1.284,0-1.799-.98-1.799-2.033 0-2.137 1.104-3.312 2.334-3.312 .922,0 1.663,.518 1.663,.518l.295-1.917c0,0-1.098-.444-2.039-.444-2.089,0-4.122,1.812-4.122,5.217 0,2.257 1.097,3.747 3.257,3.747 .611,0 1.584-.248 1.584-.248z"/>
<path d="m13.773,14.746c-1.241,0-2.192,.398-2.192,.398l-.263,1.559c0,0 .785-.319 1.972-.319 .674,0 1.167,.076 1.167,.624 0,.333-.061,.456-.061,.456s-.532-.045-.778-.045c-1.565,0-3.209,.668-3.209,2.682 0,1.587 1.079,1.951 1.748,1.951 1.277,0 1.827-.828 1.856-.831l-.06,.691h1.594l.711-4.984c.001-2.115-1.844-2.182-2.485-2.182zm.388,4.058c.035,.304-.191,1.731-1.28,1.731-.562,0-.708-.43-.708-.684 0-.495 .269-1.09 1.595-1.09 .308,.001 .341,.034 .393,.043z"/>
<path d="m17.952,22.015c.408,0 2.738,.104 2.738-2.301 0-2.248-2.157-1.804-2.157-2.707 0-.449 .352-.591 .994-.591 .255,0 1.237,.081 1.237,.081l.229-1.598c0,0-.636-.142-1.67-.142-1.339,0-2.698,.534-2.698,2.363 0,2.072 2.266,1.864 2.266,2.737 0,.582-.633,.63-1.121,.63-.844,0-1.604-.289-1.607-.276l-.242,1.583c.044,.012 .513,.221 2.031,.221z"/>
<path d="m53.926,13.312l-.391,2.422c0,0-.681-.941-1.748-.941-1.658,0-3.041,2-3.041,4.297 0,1.482 .738,2.936 2.244,2.936 1.084,0 1.686-.756 1.686-.756l-.08,.646h1.76l1.382-8.606-1.812,.002zm-.841,4.722c0,.956-.473,2.233-1.454,2.233-.651,0-.957-.547-.957-1.405 0-1.403 .63-2.329 1.426-2.329 .651,0 .985,.448 .985,1.501z"/>
<path d="m3.974,21.922l1.102-6.497 .162,6.497h1.247l2.326-6.497-1.03,6.497h1.853l1.427-8.617h-2.866l-1.784,5.287-.093-5.287h-2.641l-1.447,8.617h1.744z"/>
<path d="m31.858,21.935c.526-2.996 .624-5.428 1.881-4.983 .22-1.159 .432-1.608 .672-2.099 0,0-.113-.023-.349-.023-.81,0-1.411,1.107-1.411,1.107l.161-1.017h-1.685l-1.127,7.015h1.858z"/>
</g>
<g transform="translate(847.0062)">
<path fill="#fff" d="m-803.896,14.746c-1.241,0-2.192,.398-2.192,.398l-.263,1.559c0,0 .785-.319 1.972-.319 .674,0 1.167,.076 1.167,.624 0,.333-.06,.456-.06,.456s-.531-.045-.778-.045c-1.565,0-3.209,.668-3.209,2.682 0,1.587 1.079,1.951 1.748,1.951 1.276,0 1.827-.828 1.856-.831l-.059,.691c0,0 1.593,0 1.593,0l.711-4.984c0-2.115-1.845-2.182-2.486-2.182zm.388,4.058c.035,.304-.191,1.731-1.281,1.731-.562,0-.708-.43-.708-.684 0-.495 .269-1.09 1.595-1.09 .309,.001 .342,.034 .394,.043z"/>
</g>
<g transform="translate(442.2857)">
<path fill="#fff" d="m-395.233,21.935c.527-2.996 .625-5.428 1.881-4.983 .221-1.159 .433-1.608 .673-2.099 0,0-.113-.023-.349-.023-.811,0-1.411,1.107-1.411,1.107l.161-1.017h-1.685l-1.129,7.015h1.859z"/>
</g>
<path fill="#fff" d="m55.701,20.852c.092,0 .183,.023 .27,.071 .088,.047 .156,.115 .206,.204 .049,.088 .073,.179 .073,.275 0,.095-.024,.186-.073,.273-.048,.087-.116,.155-.203,.203-.087,.048-.179,.072-.273,.072-.095,0-.187-.024-.274-.072-.087-.049-.154-.116-.203-.203-.049-.088-.073-.179-.073-.273 0-.097 .024-.188 .074-.275 .049-.089 .118-.157 .206-.204 .087-.048 .178-.071 .27-.071m0,.09c-.077,0-.152,.021-.226,.06-.073,.039-.13,.097-.171,.17-.042,.073-.062,.149-.062,.229 0,.079 .02,.155 .06,.228 .041,.073 .098,.13 .171,.17 .073,.04 .148,.061 .228,.061 .079,0 .155-.021 .228-.061 .072-.04 .129-.097 .169-.17s.061-.148 .061-.228c0-.08-.021-.156-.062-.229-.041-.073-.098-.131-.171-.17-.073-.039-.148-.06-.225-.06m-.241,.763v-.591h.204c.069,0 .12,.006 .15,.017s.055,.029 .075,.057c.019,.027 .028,.056 .028,.087 0,.043-.016,.081-.046,.112-.031,.032-.072,.051-.123,.054 .021,.009 .037,.02 .05,.031 .023,.023 .053,.062 .087,.118l.072,.115h-.117l-.052-.093c-.042-.073-.075-.119-.1-.138-.017-.014-.043-.021-.077-.021h-.056v.252h-.095m.096-.333h.116c.056,0 .093-.008 .113-.024s.031-.038 .031-.065c0-.018-.005-.033-.015-.047s-.023-.024-.041-.031c-.018-.007-.049-.01-.096-.01h-.108v.177"/>
<g fill="#0057a0">
<path d="m88.498,28.096 3.444-20.215 5.51,0-3.447,20.215z"/>
<path d="m113.988,8.379c-1.092-.41-2.802-.85-4.938-.85-5.444,0-9.28,2.742-9.312,6.672-.03,2.904 2.737,4.524 4.828,5.491 2.145,.991 2.865,1.623 2.855,2.508-.014,1.354-1.713,1.974-3.296,1.974-2.206,0-3.377-.306-5.188-1.061l-.709-.321-.773,4.525c1.287,.563 3.667,1.053 6.137,1.078 5.792,0 9.552-2.71 9.595-6.906 .021-2.3-1.447-4.05-4.626-5.492-1.926-.936-3.105-1.56-3.093-2.506 0-.841 .999-1.739 3.155-1.739 1.802-.027 3.106,.365 4.124,.774l.494,.233 .747-4.38"/>
<path d="m128.117,7.9h-4.258c-1.318,0-2.305,.359-2.885,1.676l-8.183,18.525h5.786c0,0 .945-2.49 1.16-3.037 .632,0 6.252,.009 7.056,.009 .165,.707 .671,3.028 .671,3.028h5.112l-4.459-20.201m-6.794,13.03c.456-1.165 2.195-5.651 2.195-5.651-.032,.055 .452-1.17 .73-1.929l.372,1.742c0,0 1.056,4.826 1.275,5.838h-4.572z"/>
<path d="m83.876,7.896l-5.394,13.785-.575-2.802c-1.004-3.229-4.133-6.728-7.631-8.479l4.932,17.679 5.83-.007 8.674-20.176h-5.836"/>
</g>
<path fill="#faa61a" d="m73.478,7.883h-8.885l-.07,.421c6.912,1.673 11.486,5.717 13.385,10.575l-1.933-9.289c-.333-1.28-1.301-1.662-2.497-1.707"/>
</svg>
